<?xml version="1.0" encoding="utf-8"?>
<!-- Generator: Adobe Illustrator 21.1.0, SVG Export Plug-In . SVG Version: 6.00 Build 0)  -->
<svg version="1.1" id="图层_1" xmlns="http://www.w3.org/2000/svg" xmlns:xlink="http://www.w3.org/1999/xlink" x="0px" y="0px"
	 viewBox="0 0 32 22.6" style="enable-background:new 0 0 32 22.6;" xml:space="preserve">
<style type="text/css">
	.st0{fill:#666666;}
</style>
<path class="st0" d="M21.8,15.6C21.8,15.6,21.8,15.6,21.8,15.6H11.3l0,0c-0.2,0-0.3,0.1-0.3,0.3s0.1,0.3,0.3,0.3l0,0h10.5l0,0
	c0.2,0,0.3-0.1,0.3-0.3S22,15.6,21.8,15.6L21.8,15.6z M16.3,14.8c0.1,0.1,0.1,0.1,0.2,0.1l0,0l0,0c0.1,0,0.2,0,0.2-0.1l4.6-4.8
	c0.1-0.1,0.1-0.1,0.1-0.2c0-0.2-0.1-0.3-0.3-0.3c-0.1,0-0.2,0-0.2,0.1l-4.1,4.3V5.5l0,0c0-0.2-0.1-0.3-0.3-0.3
	c-0.2,0-0.3,0.1-0.3,0.3l0,0v8.4l-4.1-4.3c-0.1-0.1-0.1-0.1-0.2-0.1c-0.2,0-0.3,0.1-0.3,0.3c0,0.1,0,0.2,0.1,0.2L16.3,14.8
	L16.3,14.8z"/>
</svg>
